<?xml version="1.0" standalone="no"?>
<!DOCTYPE svg PUBLIC "-//W3C//DTD SVG 20010904//EN"
 "http://www.w3.org/TR/2001/REC-SVG-20010904/DTD/svg10.dtd">
<svg version="1.0" xmlns="http://www.w3.org/2000/svg"
 width="16.000000pt" height="16.000000pt" viewBox="0 0 16.000000 16.000000"
 preserveAspectRatio="xMidYMid meet">
<metadata>
Created by potrace 1.11, written by Peter Selinger 2001-2013
</metadata>
<g transform="translate(0.000000,16.000000) scale(0.012500,-0.012500)"
fill="#000000" stroke="none">
<path d="M550 1125 c-24 -72 -27 -77 -69 -96 l-45 -19 -45 21 c-113 53 -103
53 -151 2 l-44 -45 37 -73 37 -73 -18 -42 c-17 -40 -23 -45 -93 -70 l-74 -27
-3 -65 -3 -64 77 -24 c73 -24 77 -27 96 -70 l20 -45 -36 -73 -36 -73 43 -46
44 -46 76 36 77 36 41 -17 c39 -17 44 -24 69 -93 l27 -74 65 -3 64 -3 24 77
c23 73 26 77 68 95 l44 19 77 -34 76 -35 44 45 44 46 -37 72 -37 73 19 43 c17
40 23 45 93 70 l74 27 3 65 3 64 -77 24 c-74 23 -77 26 -96 69 l-19 45 35 75
36 75 -33 34 c-53 55 -58 56 -135 17 l-69 -35 -44 18 c-40 17 -45 23 -70 93
l-27 74 -64 3 -64 3 -24 -76z m167 -300 c76 -32 123 -102 123 -185 0 -112 -89
-200 -200 -200 -211 0 -276 286 -87 382 40 20 119 22 164 3z"/>
</g>
</svg>
